<svg xmlns="http://www.w3.org/2000/svg" height="511.99935" width="511"><rect id="backgroundrect" width="100%" height="100%" x="0" y="0" fill="none" stroke="none"/><g class="currentLayer" style=""><title>Layer 1</title><path d="m238.386719 186.167969c-9.242188-7.402344-20.953125-11.839844-33.6875-11.839844-29.777344 0-54.003907 24.226563-54.003907 54.003906 0 29.777344 24.226563 54.003907 54.003907 54.003907 28.253906 0 51.496093-21.816407 53.800781-49.484376l.203125-143.617187 81.121094.007813c7.433593 0 13.773437-4.808594 15.777343-11.964844 2.003907-7.15625-.917968-14.558594-7.269531-18.417969l-94.511719-57.417969c-6.652343-4.039062-15.433593.914063-15.433593 8.679688zm20.316406-157.984375 67.0625 40.738281-67.0625-.003906c0-13.582031 0-27.15625 0-40.734375zm-54.003906 233.832031c-18.574219 0-33.683594-15.109375-33.683594-33.683594s15.109375-33.6875 33.683594-33.6875 33.6875 15.113281 33.6875 33.6875-15.113281 33.683594-33.6875 33.683594zm0 0" id="svg_1" class="" fill="#ffffff" fill-opacity="1"/><path d="m355.71875 328.332031c-7.285156-4.894531-16.046875-7.753906-25.460938-7.753906-25.246093 0-45.78125 20.535156-45.78125 45.777344 0 25.246093 20.539063 45.78125 45.78125 45.78125 23.9375 0 43.628907-18.472657 45.601563-41.910157l.175781-114.96875 64 .003907c14.90625 0 20.835938-20.355469 7.898438-28.21875l-76.78125-46.644531c-6.570313-3.988282-15.433594.9375-15.433594 8.679687zm20.316406-121.191406 45.769532 27.800781-45.769532-.003906c0-9.265625 0-18.53125 0-27.796875zm-45.777344 184.679687c-14.039062 0-25.460937-11.421874-25.460937-25.464843 0-14.039063 11.421875-25.460938 25.460937-25.460938 14.039063 0 25.460938 11.421875 25.460938 25.460938 0 14.042969-11.421875 25.464843-25.460938 25.464843zm0 0" id="svg_2" class="" fill="#ffffff" fill-opacity="1"/><path d="m71.519531 401.027344c-7.257812-4.863282-15.976562-7.707032-25.351562-7.707032-25.179688 0-45.667969 20.488282-45.667969 45.671876 0 25.183593 20.488281 45.671874 45.667969 45.671874 23.882812 0 43.527343-18.429687 45.496093-41.8125l.175782-114.585937 63.769531.007813h.003906c6.894531 0 12.773438-4.460938 14.632813-11.101563 1.863281-6.640625-.847656-13.507813-6.742188-17.089844l-76.550781-46.503906c-6.652344-4.039063-15.433594.917969-15.433594 8.683594zm-25.351562 63.316406c-13.976563 0-25.351563-11.371094-25.351563-25.351562 0-13.980469 11.375-25.351563 25.351563-25.351563 13.980469 0 25.351562 11.371094 25.351562 25.351563 0 13.980468-11.371093 25.351562-25.351562 25.351562zm45.671875-156.398438c0-9.207031 0-18.417968 0-27.625l45.484375 27.632813zm0 0" id="svg_3" class="" fill="#ffffff" fill-opacity="1"/><path d="m20.582031 157.292969c6.761719 0 11.714844-6.761719 9.695313-13.199219-8.050782-25.675781-1.242188-53.433594 17.765625-72.445312 19.007812-19.003907 46.761719-25.8125 72.441406-17.765626 12.445313 3.910157 18.542969-15.480468 6.078125-19.386718-32.917969-10.320313-68.511719-1.589844-92.886719 22.789062-24.375 24.375-33.105469 59.96875-22.785156 92.886719 1.359375 4.34375 5.367187 7.121094 9.691406 7.121094zm0 0" id="svg_4" class="selected" fill="#ffffff" fill-opacity="1"/><path d="m110.097656 93.890625c12.445313 3.90625 18.542969-15.480469 6.078125-19.386719-18.574219-5.824218-38.664062-.898437-52.417969 12.859375-13.757812 13.757813-18.6875 33.84375-12.863281 52.417969 3.84375 12.253906 23.3125 6.441406 19.390625-6.078125-3.554687-11.332031-.550781-23.582031 7.839844-31.972656 8.386719-8.386719 20.636719-11.394531 31.972656-7.839844zm0 0" id="svg_5" class="" fill="#ffffff" fill-opacity="1"/><path d="m481.957031 392.0625c-3.902343-12.449219-23.296875-6.386719-19.386719 6.074219 8.046876 25.679687 1.242188 53.4375-17.769531 72.445312-19.003906 19.007813-46.757812 25.816407-72.4375 17.765625-12.449219-3.902344-18.542969 15.480469-6.078125 19.390625 9.144532 2.863281 18.488282 4.261719 27.746094 4.261719 24.074219 0 47.535156-9.445312 65.136719-27.050781 24.378906-24.375 33.109375-59.96875 22.789062-92.886719zm0 0" id="svg_6" class="" fill="#ffffff" fill-opacity="1"/><path d="m382.753906 448.34375c-12.449218-3.902344-18.546875 15.476562-6.082031 19.386719 5.160156 1.617187 10.433594 2.40625 15.660156 2.40625 13.585938 0 26.824219-5.332031 36.757813-15.265625 13.757812-13.757813 18.6875-33.84375 12.859375-52.421875-3.898438-12.445313-23.292969-6.386719-19.386719 6.078125 3.554688 11.335937.550781 23.585937-7.839844 31.972656-8.390625 8.390625-20.644531 11.394531-31.96875 7.84375zm0 0" id="svg_7" class="" fill="#ffffff" fill-opacity="1"/><path d="m294.636719 199.238281c5.609375 0 10.15625-4.546875 10.15625-10.160156v-70.09375c0-13.042969-20.316407-13.0625-20.316407 0v70.09375c0 5.613281 4.550782 10.160156 10.160157 10.160156zm0 0" id="svg_8" class="" fill="#ffffff" fill-opacity="1"/><path d="m294.628906 240.632812c5.433594 0 10.082032-4.539062 10.152344-9.980468.074219-5.640625-4.542969-10.296875-10.167969-10.304688-5.613281-.003906-10.242187 4.761719-10.125 10.371094.109375 5.390625 4.75 9.914062 10.140625 9.914062zm0 0" id="svg_9" class="" fill="#ffffff" fill-opacity="1"/></g></svg>